<svg width="1140" height="106" viewBox="0 0 1140 106" fill="none" xmlns="http://www.w3.org/2000/svg">
<g opacity="0.6">
<g clip-path="url(#clip0_0_278)">
<mask id="mask0_0_278" style="mask-type:luminance" maskUnits="userSpaceOnUse" x="985" y="51" width="131" height="25">
<path d="M985.429 51.0938H1115.43V75.0938H985.429V51.0938Z" fill="white"/>
</mask>
<g mask="url(#mask0_0_278)">
<path opacity="0.2" d="M989.082 57.6677C989.852 57.6677 990.589 57.3621 991.133 56.8182C991.677 56.2742 991.983 55.5365 991.983 54.7672C991.983 53.9979 991.677 53.2602 991.133 52.7162C990.589 52.1723 989.852 51.8667 989.082 51.8667C988.313 51.8667 987.575 52.1723 987.031 52.7162C986.487 53.2602 986.182 53.9979 986.182 54.7672C986.182 55.5365 986.487 56.2742 987.031 56.8182C987.575 57.3621 988.313 57.6677 989.082 57.6677Z" fill="white"/>
<path d="M989.082 66.3166C989.463 66.3166 989.84 66.2416 990.192 66.0958C990.544 65.95 990.864 65.7363 991.133 65.467C991.402 65.1976 991.616 64.8778 991.762 64.5258C991.908 64.1738 991.983 63.7966 991.983 63.4156C991.983 63.0347 991.908 62.6574 991.762 62.3055C991.616 61.9535 991.402 61.6337 991.133 61.3643C990.864 61.0949 990.544 60.8813 990.192 60.7355C989.84 60.5897 989.463 60.5146 989.082 60.5146C988.312 60.5146 987.575 60.8203 987.03 61.3643C986.486 61.9084 986.181 62.6463 986.181 63.4156C986.181 64.185 986.486 64.9229 987.03 65.467C987.575 66.011 988.312 66.3166 989.082 66.3166Z" fill="white"/>
<path opacity="0.2" d="M989.082 75.1267C989.852 75.1267 990.589 74.8211 991.133 74.2771C991.677 73.7332 991.983 72.9954 991.983 72.2262C991.983 71.4569 991.677 70.7192 991.133 70.1752C990.589 69.6313 989.852 69.3257 989.082 69.3257C988.313 69.3257 987.575 69.6313 987.031 70.1752C986.487 70.7192 986.182 71.4569 986.182 72.2262C986.182 72.9954 986.487 73.7332 987.031 74.2771C987.575 74.8211 988.313 75.1267 989.082 75.1267Z" fill="white"/>
<path d="M997.784 66.3166C998.165 66.3166 998.542 66.2416 998.894 66.0958C999.246 65.95 999.566 65.7363 999.835 65.467C1000.1 65.1976 1000.32 64.8778 1000.46 64.5258C1000.61 64.1738 1000.68 63.7966 1000.68 63.4156C1000.68 63.0347 1000.61 62.6574 1000.46 62.3055C1000.32 61.9535 1000.1 61.6337 999.835 61.3643C999.566 61.0949 999.246 60.8813 998.894 60.7355C998.542 60.5897 998.165 60.5146 997.784 60.5146C997.014 60.5146 996.277 60.8203 995.732 61.3643C995.188 61.9084 994.883 62.6463 994.883 63.4156C994.883 64.185 995.188 64.9229 995.732 65.467C996.277 66.011 997.014 66.3166 997.784 66.3166ZM997.784 75.1266C998.553 75.1266 999.291 74.8211 999.835 74.2771C1000.38 73.7332 1000.68 72.9954 1000.68 72.2261C1000.68 71.4569 1000.38 70.7191 999.835 70.1752C999.291 69.6312 998.553 69.3256 997.784 69.3256C997.015 69.3256 996.277 69.6312 995.733 70.1752C995.189 70.7191 994.883 71.4569 994.883 72.2261C994.883 72.9954 995.189 73.7332 995.733 74.2771C996.277 74.8211 997.015 75.1266 997.784 75.1266Z" fill="white"/>
<path opacity="0.2" d="M997.783 57.6677C998.553 57.6677 999.29 57.3621 999.834 56.8182C1000.38 56.2742 1000.68 55.5365 1000.68 54.7672C1000.68 53.9979 1000.38 53.2602 999.834 52.7162C999.29 52.1723 998.553 51.8667 997.783 51.8667C997.014 51.8667 996.276 52.1723 995.732 52.7162C995.189 53.2602 994.883 53.9979 994.883 54.7672C994.883 55.5365 995.189 56.2742 995.732 56.8182C996.276 57.3621 997.014 57.6677 997.783 57.6677ZM1006.38 57.6677C1007.15 57.6677 1007.89 57.3621 1008.43 56.8182C1008.97 56.2742 1009.28 55.5365 1009.28 54.7672C1009.28 53.9979 1008.97 53.2602 1008.43 52.7162C1007.89 52.1723 1007.15 51.8667 1006.38 51.8667C1005.61 51.8667 1004.87 52.1723 1004.33 52.7162C1003.78 53.2602 1003.48 53.9979 1003.48 54.7672C1003.48 55.5365 1003.78 56.2742 1004.33 56.8182C1004.87 57.3621 1005.61 57.6677 1006.38 57.6677Z" fill="white"/>
<path d="M1006.38 66.3166C1006.76 66.3166 1007.14 66.2416 1007.49 66.0958C1007.84 65.95 1008.16 65.7363 1008.43 65.467C1008.7 65.1976 1008.91 64.8778 1009.06 64.5258C1009.2 64.1738 1009.28 63.7966 1009.28 63.4156C1009.28 63.0347 1009.2 62.6574 1009.06 62.3055C1008.91 61.9535 1008.7 61.6337 1008.43 61.3643C1008.16 61.0949 1007.84 60.8813 1007.49 60.7355C1007.14 60.5897 1006.76 60.5146 1006.38 60.5146C1005.61 60.5146 1004.87 60.8203 1004.33 61.3643C1003.78 61.9084 1003.48 62.6463 1003.48 63.4156C1003.48 64.185 1003.78 64.9229 1004.33 65.467C1004.87 66.011 1005.61 66.3166 1006.38 66.3166Z" fill="white"/>
<path opacity="0.2" d="M1006.38 75.1267C1007.15 75.1267 1007.89 74.8211 1008.43 74.2771C1008.97 73.7332 1009.28 72.9954 1009.28 72.2262C1009.28 71.4569 1008.97 70.7192 1008.43 70.1752C1007.89 69.6313 1007.15 69.3257 1006.38 69.3257C1005.61 69.3257 1004.87 69.6313 1004.33 70.1752C1003.78 70.7192 1003.48 71.4569 1003.48 72.2262C1003.48 72.9954 1003.78 73.7332 1004.33 74.2771C1004.87 74.8211 1005.61 75.1267 1006.38 75.1267Z" fill="white"/>
<path d="M1026.7 72.8696C1027.52 72.8696 1028.19 72.7926 1028.98 72.6396V69.6676C1028.49 69.8476 1027.95 69.8976 1027.44 69.8976C1026.19 69.8976 1025.73 69.2836 1025.73 68.1046V62.0596H1028.98V59.0886H1025.73V54.6826H1022.14V59.0886H1019.81V62.0596H1022.14V68.4376C1022.14 71.2556 1023.62 72.8696 1026.7 72.8696ZM1034.84 72.8696C1036.76 72.8696 1038.04 72.2296 1038.68 71.2296C1038.73 71.6656 1038.88 72.2546 1039.09 72.6136H1042.32C1042.14 71.9986 1042.01 71.0256 1042.01 70.3846V63.3666C1042.01 60.4716 1039.93 58.8326 1036.42 58.8326C1033.76 58.8326 1031.69 59.8316 1030.53 61.2916L1032.58 63.3146C1033.5 62.2906 1034.68 61.7526 1036.12 61.7526C1037.86 61.7526 1038.63 62.3416 1038.63 63.2126C1038.63 63.9556 1038.11 64.4676 1035.35 64.4676C1032.68 64.4676 1029.99 65.5696 1029.99 68.6426C1029.99 71.4866 1032.04 72.8696 1034.84 72.8696ZM1035.55 70.1546C1034.17 70.1546 1033.53 69.5646 1033.53 68.5146C1033.53 67.5926 1034.3 66.9776 1035.58 66.9776C1037.63 66.9776 1038.19 66.8496 1038.63 66.4146V67.5156C1038.63 68.9756 1037.4 70.1546 1035.55 70.1546ZM1044.34 57.3726H1048.08V54.0166H1044.34V57.3736V57.3726ZM1044.42 72.6126H1048V59.0896H1044.42V72.6136V72.6126ZM1050.61 72.6136H1054.2V54.4266H1050.61V72.6136ZM1061.65 72.8696C1065.6 72.8696 1067.62 70.7946 1067.62 68.6176C1067.62 66.6446 1066.62 65.1846 1063.35 64.5956C1061.04 64.1856 1059.61 63.6736 1059.61 62.8796C1059.61 62.1876 1060.43 61.7016 1061.81 61.7016C1063.04 61.7016 1064.06 62.1116 1064.83 63.0076L1067.11 61.0866C1065.96 59.6516 1064.06 58.8326 1061.81 58.8326C1058.35 58.8326 1056.2 60.6766 1056.2 62.9306C1056.2 65.3906 1058.45 66.4906 1060.89 66.9266C1062.91 67.2856 1064.04 67.6696 1064.04 68.5406C1064.04 69.2836 1063.24 69.8986 1061.73 69.8986C1060.25 69.8986 1059.09 69.2066 1058.55 68.1816L1055.53 69.6166C1056.28 71.4606 1058.81 72.8696 1061.65 72.8696ZM1075.64 72.8696C1078.2 72.8696 1080.05 71.8446 1081.43 69.5396L1078.56 68.0796C1078.02 69.1556 1077.15 69.8986 1075.64 69.8986C1073.36 69.8986 1072.13 68.0536 1072.13 65.8256C1072.13 63.5966 1073.44 61.8036 1075.64 61.8036C1077.02 61.8036 1077.95 62.5466 1078.48 63.6736L1081.38 62.1366C1080.4 60.0106 1078.48 58.8326 1075.64 58.8326C1070.95 58.8326 1068.55 62.2646 1068.55 65.8256C1068.55 69.6936 1071.47 72.8696 1075.64 72.8696ZM1087.14 72.8696C1089.06 72.8696 1090.34 72.2296 1090.98 71.2296C1091.04 71.6656 1091.19 72.2546 1091.39 72.6136H1094.62C1094.44 71.9986 1094.31 71.0256 1094.31 70.3846V63.3666C1094.31 60.4716 1092.24 58.8326 1088.73 58.8326C1086.07 58.8326 1083.99 59.8316 1082.84 61.2916L1084.89 63.3146C1085.81 62.2906 1086.99 61.7526 1088.42 61.7526C1090.16 61.7526 1090.93 62.3416 1090.93 63.2126C1090.93 63.9556 1090.42 64.4676 1087.65 64.4676C1084.99 64.4676 1082.3 65.5696 1082.3 68.6426C1082.3 71.4866 1084.35 72.8696 1087.14 72.8696ZM1087.86 70.1546C1086.48 70.1546 1085.84 69.5646 1085.84 68.5146C1085.84 67.5926 1086.6 66.9776 1087.88 66.9776C1089.93 66.9776 1090.5 66.8496 1090.93 66.4146V67.5156C1090.93 68.9756 1089.7 70.1546 1087.86 70.1546ZM1096.42 72.6136H1100.01V54.4266H1096.42V72.6136ZM1108.61 72.8696C1111.25 72.8696 1113.38 71.8196 1114.56 69.9496L1111.84 68.2076C1111.13 69.3346 1110.18 69.9496 1108.61 69.9496C1106.85 69.9496 1105.57 68.9756 1105.23 67.0796H1115.43V65.8256C1115.43 62.2656 1113.25 58.8326 1108.59 58.8326C1104.16 58.8326 1101.75 62.2906 1101.75 65.8506C1101.75 70.9226 1105.57 72.8696 1108.61 72.8696ZM1105.36 64.2626C1105.93 62.5466 1107.1 61.7526 1108.67 61.7526C1110.43 61.7526 1111.51 62.8026 1111.87 64.2626H1105.36Z" fill="white"/>
</g>
</g>
</g>
<g opacity="0.6">
<g clip-path="url(#clip1_0_278)">
<path d="M767.007 69.8188V67.5438H760.045V56.3688H757.375V69.8188H767.007ZM773.693 69.4078C774.28 68.9873 774.733 68.4069 774.999 67.7358V69.8188H777.55V63.3238C777.559 62.6646 777.368 62.0183 777.002 61.4698C776.63 60.9198 776.102 60.4858 775.482 60.2198C774.734 59.9044 773.928 59.7513 773.117 59.7708C772.633 59.7688 772.15 59.8097 771.674 59.8928C771.224 59.9728 770.784 60.0948 770.357 60.2558C769.963 60.4068 769.583 60.5898 769.221 60.8018L769.298 63.1118C769.874 62.7388 770.491 62.4347 771.138 62.2058C771.782 61.9901 772.457 61.8836 773.136 61.8908C773.628 61.8608 774.115 62.0038 774.508 62.2908C774.667 62.4148 774.794 62.5728 774.879 62.7518C774.965 62.9318 775.007 63.1268 775.002 63.3238V63.9918H772.738C771.379 63.9918 770.305 64.2688 769.515 64.8238C769.133 65.0808 768.825 65.4258 768.617 65.8268C768.41 66.2267 768.31 66.6736 768.327 67.1238C768.32 67.6428 768.457 68.1538 768.722 68.6048C768.997 69.0515 769.394 69.4108 769.866 69.6408C770.395 69.9028 770.983 70.0348 771.578 70.0228C772.33 70.0466 773.071 69.8312 773.693 69.4078ZM771.389 67.7358C771.25 67.6354 771.137 67.5021 771.062 67.3478C770.988 67.1948 770.954 67.0255 770.963 66.8558C770.957 66.6477 771.009 66.442 771.113 66.2618C771.217 66.0808 771.37 65.9298 771.556 65.8258C772.1 65.5508 772.708 65.4255 773.317 65.4628H774.963V65.8438C774.957 66.1858 774.863 66.5208 774.689 66.8188C774.483 67.1767 774.19 67.4762 773.836 67.6888C773.446 67.9328 772.991 68.0588 772.527 68.0508C772.124 68.0685 771.726 67.9583 771.389 67.7358ZM785.679 69.3758C786.301 68.8317 786.76 68.1254 787.004 67.3358V69.8188H789.597V60.0758H787.004V64.6228C787.014 65.2198 786.907 65.8128 786.689 66.3708C786.504 66.8515 786.184 67.2689 785.769 67.5738C785.361 67.8617 784.872 68.0124 784.373 68.0038C784.128 68.0185 783.883 67.9831 783.653 67.8998C783.425 67.8173 783.216 67.6883 783.04 67.5208C782.874 67.3301 782.748 67.1087 782.668 66.8691C782.588 66.6296 782.556 66.3767 782.574 66.1248V60.0758H779.984V66.1698C779.984 67.4308 780.294 68.4028 780.914 69.0848C781.226 69.4298 781.616 69.7028 782.053 69.8828C782.49 70.0628 782.963 70.1448 783.438 70.1228C784.251 70.1527 785.047 69.8873 785.679 69.3758ZM795.007 69.8238V65.2718C794.997 64.6748 795.104 64.0818 795.323 63.5228C795.507 63.044 795.822 62.6269 796.233 62.3198C796.633 62.0328 797.12 61.8818 797.619 61.8908C797.863 61.8748 798.109 61.9098 798.339 61.9918C798.568 62.0738 798.777 62.2018 798.952 62.3678C799.288 62.7578 799.455 63.2558 799.418 63.7618V69.8188H802.03V63.7238C802.03 62.4618 801.717 61.4908 801.09 60.8088C800.773 60.4649 800.383 60.1951 799.95 60.0188C799.512 59.8402 799.041 59.7583 798.568 59.7788C797.753 59.7462 796.955 60.0138 796.324 60.5308C795.708 61.077 795.253 61.7805 795.007 62.5658V60.0758H792.417V69.8178L795.007 69.8238ZM810.741 70.0338C811.06 69.9868 811.374 69.9168 811.681 69.8238C811.972 69.7338 812.231 69.6458 812.505 69.5588L812.524 67.1898C812.105 67.3928 811.664 67.5468 811.207 67.6488C810.75 67.7517 810.282 67.803 809.813 67.8018C809.208 67.8226 808.607 67.6945 808.063 67.4288C807.618 67.2043 807.255 66.8466 807.023 66.4058C806.802 65.9518 806.687 65.4533 806.687 64.9483C806.687 64.4432 806.802 63.9447 807.023 63.4908C807.253 63.0538 807.616 62.6938 808.063 62.4608C808.593 62.1919 809.181 62.0605 809.775 62.0788C810.265 62.0768 810.754 62.1348 811.229 62.2508C811.675 62.3628 812.109 62.5168 812.524 62.7098L812.504 60.2828C812.227 60.1766 811.943 60.0881 811.654 60.0178C811.007 59.8578 810.343 59.7776 809.676 59.7788C808.636 59.7535 807.606 59.9868 806.678 60.4578C805.86 60.8775 805.178 61.5203 804.711 62.3118C804.243 63.1243 804.003 64.0482 804.017 64.9858C804.002 65.9169 804.245 66.834 804.719 67.6358C805.192 68.4165 805.878 69.0459 806.697 69.4498C807.613 69.8968 808.628 70.1198 809.654 70.0998C810.014 70.1018 810.374 70.0778 810.73 70.0278L810.74 70.0328L810.741 70.0338ZM817.418 69.8238V65.2718C817.408 64.6748 817.515 64.0818 817.734 63.5228C817.916 63.0458 818.234 62.6288 818.653 62.3198C819.053 62.035 819.534 61.8848 820.025 61.8908C820.272 61.8738 820.52 61.9078 820.753 61.9908C820.986 62.0728 821.199 62.2008 821.377 62.3678C821.713 62.7578 821.88 63.2558 821.843 63.7618V69.8188H824.433V63.7238C824.433 62.4618 824.123 61.4908 823.503 60.8088C823.188 60.4648 822.801 60.195 822.369 60.0188C821.933 59.8401 821.464 59.7582 820.993 59.7788C820.175 59.7468 819.373 60.0142 818.738 60.5308C818.118 61.0744 817.659 61.7785 817.413 62.5658V56.3688H814.861V69.8188L817.418 69.8238ZM832.768 69.8238C834.075 69.8621 835.372 69.5803 836.546 69.0028C837.556 68.4849 838.384 67.6714 838.919 66.6708C839.481 65.5726 839.759 64.3511 839.728 63.1178C839.757 61.882 839.479 60.6584 838.918 59.5568C838.384 58.5512 837.556 57.7317 836.546 57.2068C835.374 56.623 834.077 56.3372 832.768 56.3748H827.415V69.8188L832.768 69.8238ZM830.075 67.5438V58.6438H832.725C834.059 58.6438 835.105 59.0358 835.861 59.8198C836.619 60.6038 836.998 61.7018 837 63.1128C837 64.5268 836.62 65.6188 835.861 66.3908C835.103 67.1628 834.057 67.5478 832.726 67.5458H830.076L830.075 67.5438ZM846.515 69.3988C847.101 68.9774 847.553 68.3972 847.82 67.7268V69.8098H850.377V63.3238C850.39 62.6656 850.203 62.019 849.842 61.4688C849.461 60.9138 848.928 60.48 848.308 60.2188C847.561 59.9037 846.756 59.7507 845.946 59.7698C845.462 59.7678 844.978 59.8087 844.501 59.8918C843.636 60.0469 842.805 60.3551 842.048 60.8018L842.128 63.1118C842.703 62.738 843.321 62.4336 843.968 62.2048C844.612 61.9888 845.287 61.8823 845.966 61.8898C846.458 61.8598 846.945 62.0018 847.337 62.2898C847.495 62.4126 847.623 62.5704 847.71 62.7508C847.796 62.9308 847.839 63.1258 847.834 63.3228V63.9908H845.579C844.207 63.9908 843.145 64.2558 842.352 64.8228C841.974 65.0768 841.666 65.4221 841.456 65.8268C841.249 66.2265 841.15 66.673 841.167 67.1228C841.16 67.6418 841.297 68.1528 841.562 68.6038C841.83 69.0458 842.223 69.4058 842.695 69.6398C843.226 69.9032 843.813 70.0343 844.405 70.0218C845.165 70.0478 845.915 69.8318 846.536 69.4068L846.515 69.3988ZM844.21 67.7268C844.073 67.6265 843.963 67.4939 843.889 67.3408C843.816 67.1895 843.783 67.0223 843.793 66.8548C843.787 66.6467 843.839 66.441 843.943 66.2608C844.047 66.0798 844.2 65.9288 844.385 65.8248C844.927 65.5498 845.536 65.4248 846.147 65.4618H847.793V65.8428C847.785 66.1858 847.691 66.5212 847.518 66.8178C847.313 67.1753 847.021 67.4748 846.668 67.6878C846.278 67.9318 845.82 68.0578 845.354 68.0498C844.952 68.0676 844.554 67.9574 844.218 67.7348L844.21 67.7268ZM855.59 69.8168V65.6658C855.59 64.5848 855.826 63.7578 856.3 63.1938C856.531 62.9146 856.824 62.693 857.155 62.5468C857.49 62.3987 857.855 62.3289 858.221 62.3428C858.582 62.3398 858.942 62.3908 859.288 62.4938V60.1038C859.123 60.0545 858.954 60.0197 858.783 59.9998C858.601 59.9784 858.417 59.9687 858.234 59.9708C857.931 59.9685 857.631 60.0263 857.351 60.1408C857.072 60.2538 856.82 60.4208 856.611 60.6338C856.121 61.1338 855.771 61.7438 855.59 62.4088V60.0758H852.997V69.8188H855.59V69.8168ZM863.521 69.8168V66.6648L864.451 65.8058L867.469 69.8178H870.514L866.204 64.1238L870.435 60.0748H867.192L863.513 63.5458V56.3938H860.961V69.8198H863.521V69.8168ZM874.698 69.8168V56.3698H872.124V69.8198H874.698V69.8168ZM878.635 73.4468C879.45 73.4804 880.258 73.285 880.967 72.8828C881.572 72.5068 882.073 71.8538 882.47 70.9248L887.109 60.0748H884.459L881.716 66.8948L878.942 60.0748H876.292L880.445 69.7988L880.226 70.2948C880.125 70.5848 879.933 70.8388 879.677 71.0208C879.361 71.1953 879.001 71.2751 878.64 71.2508H876.487V73.4478L878.635 73.4468ZM906.098 75.0938C905.996 75.0941 905.895 75.0665 905.807 75.0138C905.723 74.9637 905.655 74.8916 905.61 74.8053C905.565 74.7191 905.544 74.622 905.55 74.5248C905.559 74.4308 905.595 74.3413 905.653 74.2668L911.491 66.5038L901.269 70.5368C901.18 70.5742 901.083 70.5882 900.987 70.5773C900.892 70.5665 900.8 70.5311 900.722 70.4748C900.628 70.4069 900.56 70.3103 900.526 70.1998C900.492 70.0928 900.495 69.9774 900.536 69.8728C900.578 69.7669 900.653 69.6779 900.751 69.6198L909.741 64.4928L893.911 63.6128C893.785 63.5921 893.67 63.5285 893.586 63.4328C893.503 63.3381 893.457 63.2166 893.457 63.0908C893.458 62.9656 893.503 62.8449 893.586 62.7508C893.67 62.6543 893.785 62.5899 893.911 62.5688L909.749 61.6918L900.756 56.5648C900.658 56.5066 900.583 56.4176 900.542 56.3118C900.501 56.2072 900.497 56.0918 900.531 55.9848C900.565 55.8745 900.634 55.7783 900.727 55.7108C900.821 55.6419 900.935 55.6045 901.052 55.6038C901.128 55.6038 901.203 55.6198 901.272 55.6508L911.497 59.6888L905.659 51.9288C905.6 51.8549 905.564 51.7654 905.555 51.6712C905.546 51.5771 905.565 51.4824 905.609 51.3988C905.654 51.3068 905.724 51.2295 905.811 51.1755C905.897 51.1215 905.998 51.0932 906.1 51.0938C906.243 51.095 906.38 51.1521 906.482 51.2528L918.117 62.4868C918.198 62.5648 918.263 62.6584 918.307 62.762C918.352 62.8656 918.375 62.9771 918.375 63.0898C918.375 63.2024 918.352 63.3139 918.307 63.4175C918.263 63.5211 918.198 63.6147 918.117 63.6928L906.476 74.9398C906.426 74.9893 906.367 75.0285 906.303 75.0549C906.238 75.0814 906.168 75.0946 906.098 75.0938Z" fill="white"/>
</g>
</g>
<g opacity="0.6">
<g clip-path="url(#clip2_0_278)">
<path d="M615.894 61.3658H608.164C607.964 61.3658 607.803 61.5218 607.803 61.7148V65.3608C607.803 65.5528 607.964 65.7098 608.163 65.7098H611.179V70.2397C611.179 70.2397 610.502 70.4627 608.629 70.4627C606.421 70.4627 603.336 69.6838 603.336 63.1388C603.336 56.5928 606.548 55.7308 609.565 55.7308C612.175 55.7308 613.301 56.1747 614.016 56.3888C614.242 56.4548 614.45 56.2387 614.45 56.0468L615.312 52.5237C615.312 52.4337 615.281 52.3247 615.174 52.2517C614.884 52.0518 613.109 51.0938 608.63 51.0938C603.47 51.0938 598.174 53.2118 598.174 63.3938C598.174 73.5767 604.236 75.0938 609.344 75.0938C613.572 75.0938 616.138 73.3507 616.138 73.3507C616.243 73.2938 616.255 73.1507 616.255 73.0868V61.7148C616.253 61.6208 616.214 61.5313 616.147 61.4658C616.079 61.4004 615.988 61.3644 615.894 61.3658ZM655.736 52.3138C655.736 52.1198 655.576 51.9638 655.377 51.9638H651.024C650.977 51.9631 650.931 51.9716 650.888 51.9888C650.844 52.0061 650.805 52.0317 650.771 52.0642C650.738 52.0967 650.711 52.1355 650.693 52.1783C650.674 52.2211 650.664 52.2671 650.664 52.3138V60.4288H643.881V52.3138C643.881 52.1198 643.721 51.9638 643.521 51.9638H639.169C639.122 51.9631 639.076 51.9716 639.033 51.9888C638.989 52.0061 638.95 52.0317 638.916 52.0642C638.883 52.0967 638.856 52.1355 638.838 52.1783C638.819 52.2211 638.809 52.2671 638.809 52.3138V74.2857C638.809 74.4807 638.971 74.6378 639.169 74.6378H643.522C643.72 74.6378 643.881 74.4807 643.881 74.2857V64.8877H650.666L650.654 74.2857C650.654 74.4807 650.815 74.6378 651.014 74.6378H655.378C655.578 74.6378 655.736 74.4807 655.738 74.2857V52.3138H655.736ZM624.109 55.1968C624.109 53.6858 622.851 52.4638 621.301 52.4638C619.752 52.4638 618.495 53.6858 618.495 55.1968C618.495 56.7078 619.753 57.9328 621.301 57.9328C622.851 57.9328 624.109 56.7078 624.109 55.1968ZM623.797 69.6507V59.5087C623.796 59.4621 623.786 59.4161 623.768 59.3733C623.749 59.3305 623.723 59.2917 623.689 59.2592C623.656 59.2267 623.616 59.2011 623.573 59.1839C623.53 59.1666 623.483 59.1581 623.437 59.1587H619.098C618.898 59.1587 618.721 59.3567 618.721 59.5487V74.0798C618.721 74.5077 618.996 74.6348 619.353 74.6348H623.263C623.692 74.6348 623.797 74.4317 623.797 74.0737V69.6507ZM672.279 59.1917H667.959C667.865 59.1909 667.774 59.2274 667.707 59.2932C667.64 59.359 667.601 59.4487 667.6 59.5428V70.3167C667.6 70.3167 666.503 71.0917 664.945 71.0917C663.388 71.0917 662.975 70.4097 662.975 68.9387V59.5428C662.973 59.4487 662.935 59.3591 662.867 59.2935C662.8 59.2279 662.709 59.1917 662.615 59.1927H658.23C658.136 59.1919 658.046 59.2283 657.978 59.2938C657.911 59.3594 657.872 59.4489 657.871 59.5428V69.6497C657.871 74.0197 660.396 75.0898 663.869 75.0898C666.719 75.0898 669.015 73.5697 669.015 73.5697C669.015 73.5697 669.125 74.3708 669.175 74.4657C669.207 74.5218 669.253 74.5686 669.309 74.6019C669.364 74.6351 669.427 74.6537 669.492 74.6558L672.281 74.6437C672.478 74.6437 672.641 74.4868 672.641 74.2938L672.639 59.5437C672.638 59.497 672.629 59.4508 672.61 59.4078C672.592 59.3648 672.565 59.3259 672.532 59.2932C672.498 59.2605 672.459 59.2347 672.415 59.2173C672.372 59.1999 672.326 59.1912 672.279 59.1917ZM682.381 71.0788C680.883 71.0338 679.867 70.3787 679.867 70.3787V63.4198C679.867 63.4198 680.869 62.8267 682.1 62.7207C683.655 62.5868 685.154 63.0408 685.154 66.6208C685.154 70.3938 684.476 71.1388 682.381 71.0788ZM684.085 58.6988C681.632 58.6988 679.963 59.7537 679.963 59.7537V52.3138C679.962 52.2198 679.923 52.1301 679.856 52.0645C679.788 51.9989 679.698 51.9627 679.604 51.9638H675.238C675.191 51.9631 675.145 51.9716 675.102 51.9888C675.058 52.0061 675.019 52.0317 674.985 52.0642C674.952 52.0967 674.925 52.1355 674.907 52.1783C674.888 52.2211 674.878 52.2671 674.878 52.3138V74.2857C674.878 74.4807 675.041 74.6378 675.239 74.6378H678.269C678.404 74.6378 678.508 74.5697 678.583 74.4517C678.659 74.3337 678.768 73.4387 678.768 73.4387C678.768 73.4387 680.553 75.0688 683.931 75.0688C687.899 75.0688 690.174 73.1287 690.174 66.3567C690.174 59.5837 686.541 58.6988 684.085 58.6988ZM636.308 59.1578H633.042L633.037 54.9957C633.037 54.8377 632.954 54.7597 632.764 54.7597H628.315C628.142 54.7597 628.049 54.8328 628.049 54.9938V59.2937C628.049 59.2937 625.819 59.8127 625.669 59.8538C625.595 59.8736 625.529 59.917 625.482 59.9775C625.435 60.0379 625.409 60.1121 625.408 60.1888V62.8918C625.408 63.0858 625.568 63.2428 625.768 63.2428H628.048V69.7428C628.048 74.5728 631.56 75.0467 633.929 75.0467C635.012 75.0467 636.307 74.7108 636.521 74.6348C636.651 74.5888 636.725 74.4597 636.725 74.3197L636.729 71.3468C636.729 71.1537 636.559 70.9967 636.368 70.9967C636.178 70.9967 635.69 71.0707 635.19 71.0707C633.586 71.0707 633.042 70.3507 633.042 69.4207V63.2437H636.308C636.507 63.2437 636.668 63.0868 636.668 62.8927V59.5068C636.667 59.4601 636.657 59.4141 636.639 59.3713C636.62 59.3285 636.594 59.2897 636.56 59.2572C636.527 59.2247 636.487 59.1991 636.444 59.1818C636.401 59.1646 636.354 59.1561 636.308 59.1567V59.1578Z" fill="white"/>
</g>
</g>
<g opacity="0.6">
<g clip-path="url(#clip3_0_278)">
<mask id="mask1_0_278" style="mask-type:luminance" maskUnits="userSpaceOnUse" x="431" y="48" width="100" height="30">
<path d="M431.247 48.9526H530.247V77.2336H431.247V48.9526Z" fill="white"/>
</mask>
<g mask="url(#mask1_0_278)">
<path d="M465.495 64.6806C464.652 64.2146 464.208 63.8376 464.208 63.3046C464.208 62.6176 464.808 62.1956 465.761 62.1956C466.871 62.1956 467.846 62.6616 467.846 62.6616L468.623 60.2886C468.623 60.2886 467.913 59.7336 465.805 59.7336C462.877 59.7336 460.837 61.4196 460.837 63.7706C460.837 65.1016 461.791 66.1216 463.055 66.8536C464.075 67.4306 464.43 67.8526 464.43 68.4516C464.43 69.0946 463.92 69.6046 462.966 69.6046C461.546 69.6046 460.216 68.8726 460.216 68.8726L459.395 71.2466C459.395 71.2466 460.637 72.0666 462.7 72.0666C465.717 72.0666 467.868 70.5806 467.868 67.9186C467.913 66.4546 466.804 65.4346 465.495 64.6806ZM477.517 59.6896C476.032 59.6896 474.878 60.3996 473.969 61.4636L473.924 61.4416L475.211 54.6986H471.839L468.579 71.8456H471.928L473.037 65.9896C473.481 63.7706 474.612 62.4176 475.677 62.4176C476.431 62.4176 476.719 62.9276 476.719 63.6596C476.719 64.1256 476.675 64.6796 476.564 65.1466L475.3 71.8666H478.65L479.958 64.9466C480.109 64.224 480.191 63.4887 480.202 62.7506C480.246 60.8206 479.269 59.6896 477.517 59.6896ZM487.833 59.6886C483.796 59.6886 481.112 63.3266 481.112 67.3866C481.112 69.9816 482.709 72.0886 485.726 72.0886C489.696 72.0886 492.358 68.5396 492.358 64.3916C492.38 61.9736 490.983 59.6886 487.833 59.6886ZM486.191 69.4936C485.038 69.4936 484.572 68.5176 484.572 67.2976C484.572 65.3676 485.57 62.2396 487.389 62.2396C488.587 62.2396 488.964 63.2596 488.964 64.2586C488.964 66.3436 487.966 69.4936 486.191 69.4936ZM500.963 59.6886C498.701 59.6886 497.414 61.6856 497.414 61.6856H497.37L497.57 59.8886H494.597C494.409 61.381 494.18 62.8678 493.909 64.3476L491.58 76.5916H494.93L495.861 71.6236H495.928C495.928 71.6236 496.616 72.0666 497.902 72.0666C501.851 72.0666 504.424 68.0296 504.424 63.9486C504.424 61.7086 503.425 59.6886 500.963 59.6886ZM497.769 69.5606C496.904 69.5606 496.394 69.0726 496.394 69.0726L496.949 65.9446C497.348 63.8596 498.435 62.4616 499.589 62.4616C500.609 62.4616 500.919 63.4156 500.919 64.3026C500.919 66.4546 499.632 69.5606 497.769 69.5606ZM509.217 54.8756C508.153 54.8756 507.287 55.7186 507.287 56.8276C507.287 57.8256 507.908 58.5136 508.862 58.5136H508.907C509.949 58.5136 510.859 57.8036 510.881 56.5616C510.903 55.5636 510.238 54.8756 509.217 54.8756ZM504.514 71.8446H507.886L510.17 59.9546H506.777L504.514 71.8446ZM518.688 59.9336H516.359L516.469 59.3786C516.669 58.2246 517.335 57.2046 518.466 57.2046C519.066 57.2046 519.531 57.3816 519.531 57.3816L520.197 54.7646C520.197 54.7646 519.62 54.4766 518.377 54.4766C517.18 54.4766 516.004 54.8086 515.095 55.5856C513.941 56.5616 513.409 57.9586 513.143 59.3786L513.053 59.9326H511.501L511.013 62.4626H512.566L510.791 71.8446H514.141L515.915 62.4616H518.222L518.688 59.9326V59.9336ZM526.764 59.9556C526.764 59.9556 524.656 65.2346 523.724 68.1186H523.68C523.614 67.1866 522.86 59.9556 522.86 59.9556H519.333L521.351 70.8686C521.396 71.1126 521.373 71.2686 521.285 71.4236C520.847 72.2308 520.223 72.9227 519.465 73.4426C518.845 73.9076 518.135 74.1966 517.58 74.3956L518.512 77.2356C519.2 77.0796 520.597 76.5256 521.795 75.4156C523.325 73.9746 524.745 71.7786 526.187 68.7616L530.291 59.9556H526.764ZM447.839 52.2356C447.839 52.2356 447.529 52.3236 447.018 52.4796C446.912 52.144 446.778 51.8176 446.618 51.5036C446.043 50.3936 445.177 49.7936 444.157 49.7936C444.091 49.7936 444.024 49.7936 443.936 49.8166C443.913 49.7716 443.869 49.7496 443.846 49.7056C443.403 49.2176 442.826 48.9956 442.139 49.0176C440.808 49.0616 439.477 50.0156 438.412 51.7236C437.658 52.9216 437.082 54.4306 436.926 55.6056C435.396 56.0716 434.331 56.4046 434.308 56.4266C433.532 56.6706 433.51 56.6926 433.421 57.4246C433.354 57.9806 431.313 73.5966 431.313 73.5966L448.083 76.5026V52.2136C447.949 52.2136 447.883 52.2356 447.839 52.2356ZM443.957 53.4326C443.069 53.6996 442.093 54.0096 441.14 54.2976C441.406 53.2556 441.938 52.2126 442.56 51.5256C442.803 51.2816 443.136 50.9926 443.513 50.8156C443.89 51.6136 443.979 52.7006 443.957 53.4326ZM442.137 49.9286C442.448 49.9286 442.715 49.9946 442.937 50.1286C442.581 50.3056 442.227 50.5936 441.894 50.9266C441.051 51.8366 440.408 53.2556 440.141 54.6086C439.343 54.8526 438.544 55.0966 437.812 55.3186C438.3 53.1886 440.097 49.9726 442.138 49.9286H442.137ZM439.565 62.1286C439.653 63.5486 443.402 63.8586 443.624 67.2086C443.779 69.8486 442.227 71.6446 439.986 71.7786C437.28 71.9556 435.794 70.3586 435.794 70.3586L436.37 67.9186C436.37 67.9186 437.857 69.0486 439.054 68.9606C439.831 68.9166 440.119 68.2726 440.097 67.8296C439.986 65.9656 436.925 66.0766 436.725 63.0156C436.548 60.4426 438.234 57.8476 441.96 57.6036C443.402 57.5136 444.134 57.8696 444.134 57.8696L443.291 61.0636C443.291 61.0636 442.337 60.6196 441.206 60.7086C439.565 60.8196 439.542 61.8626 439.565 62.1286ZM444.844 53.1666C444.844 52.5016 444.755 51.5466 444.444 50.7486C445.465 50.9486 445.954 52.0796 446.174 52.7676C445.776 52.8776 445.332 53.0106 444.844 53.1666ZM448.592 76.4586L455.557 74.7286C455.557 74.7286 452.563 54.4746 452.54 54.3416C452.532 54.2819 452.503 54.2271 452.459 54.1865C452.414 54.146 452.357 54.1223 452.296 54.1196C452.186 54.1196 450.233 54.0756 450.233 54.0756C450.233 54.0756 449.036 52.9216 448.592 52.4786V76.4586Z" fill="white"/>
</g>
</g>
</g>
<g opacity="0.6">
<g clip-path="url(#clip4_0_278)">
<mask id="mask2_0_278" style="mask-type:luminance" maskUnits="userSpaceOnUse" x="201" y="53" width="164" height="21">
<path d="M201.797 53.0579H364.047V73.1299H201.797V53.0579Z" fill="white"/>
</mask>
<g mask="url(#mask2_0_278)">
<path d="M207.697 62.214C207.638 62.1365 207.56 62.0756 207.47 62.0372C207.381 61.9987 207.283 61.984 207.186 61.9945C207.089 62.0049 206.997 62.0402 206.917 62.0969C206.838 62.1535 206.775 62.2297 206.734 62.318L201.856 72.041C201.811 72.1297 201.79 72.2284 201.794 72.3277C201.799 72.4269 201.829 72.5234 201.881 72.6078C201.933 72.6923 202.007 72.7618 202.094 72.8098C202.181 72.8578 202.278 72.8826 202.378 72.882H209.17C209.278 72.8843 209.385 72.8552 209.478 72.7983C209.57 72.7413 209.644 72.6589 209.691 72.561C211.156 69.542 210.268 64.954 207.697 62.214ZM211.273 53.369C210.058 55.2323 209.35 57.38 209.219 59.6004C209.087 61.8207 209.536 64.0371 210.522 66.031L213.796 72.561C213.844 72.6577 213.919 72.739 214.011 72.7957C214.103 72.8524 214.209 72.8823 214.318 72.882H221.108C221.207 72.8815 221.304 72.856 221.39 72.8077C221.477 72.7594 221.549 72.69 221.602 72.6059C221.654 72.5219 221.684 72.4259 221.689 72.3271C221.694 72.2283 221.673 72.1298 221.63 72.041C221.63 72.041 212.494 53.821 212.264 53.366C212.219 53.2728 212.148 53.1944 212.06 53.1396C211.972 53.0847 211.871 53.0558 211.767 53.0562C211.664 53.0565 211.562 53.086 211.475 53.1413C211.387 53.1967 211.317 53.2756 211.273 53.369ZM290.924 61.166C290.924 63.573 292.044 65.485 296.426 66.329C299.041 66.876 299.588 67.297 299.588 68.166C299.588 69.01 299.039 69.556 297.198 69.556C294.973 69.5162 292.792 68.9278 290.849 67.843V71.765C292.169 72.41 293.912 73.13 297.149 73.13C301.729 73.13 303.547 71.093 303.547 68.066L290.924 61.166ZM303.547 68.066C303.547 65.212 302.028 63.871 297.746 62.953C295.381 62.431 294.808 61.91 294.808 61.166C294.808 60.223 295.655 59.826 297.223 59.826C299.115 59.826 300.983 60.396 302.75 61.19V57.442C301.054 56.6726 299.208 56.291 297.347 56.325C293.115 56.325 290.924 58.163 290.924 61.166M349.779 56.573V72.882H353.265V60.444L354.734 63.746L359.663 72.881H364.045V56.573H360.56V67.098L359.24 64.045L355.281 56.573H349.779ZM327.61 56.574H323.801V72.882H327.61V56.574ZM319.406 68.066C319.406 65.212 317.888 63.871 313.605 62.953C311.24 62.431 310.668 61.91 310.668 61.166C310.668 60.223 311.514 59.826 313.082 59.826C314.975 59.826 316.842 60.396 318.61 61.19V57.442C316.914 56.6726 315.068 56.2911 313.207 56.325C308.974 56.325 306.784 58.162 306.784 61.165C306.784 63.573 307.904 65.485 312.286 66.329C314.9 66.876 315.448 67.297 315.448 68.166C315.448 69.01 314.899 69.556 313.057 69.556C310.832 69.5161 308.652 68.9277 306.709 67.843V71.765C308.029 72.41 309.771 73.13 313.008 73.13C317.589 73.13 319.406 71.093 319.406 68.066ZM261.334 56.573V72.882H269.164L270.396 69.357H265.168V56.573H261.334ZM245.865 56.573V60.098H250.098V72.882H253.932V60.098H258.462V56.573H245.865ZM240.304 56.573H235.28L229.576 72.882H233.932L234.741 70.135C236.732 70.718 238.85 70.718 240.841 70.135L241.65 72.882H246.007L240.304 56.573ZM237.793 67.194C237.083 67.194 236.378 67.093 235.697 66.894L237.793 59.776L239.889 66.896C239.208 67.0944 238.502 67.1948 237.793 67.194ZM282.662 56.573H277.637L271.934 72.882H276.291L277.1 70.135C279.092 70.718 281.21 70.718 283.2 70.135L284.01 72.882H288.366L282.662 56.573ZM280.15 67.194C279.44 67.194 278.734 67.093 278.053 66.894L280.15 59.776L282.246 66.896C281.565 67.0944 280.859 67.1948 280.15 67.194ZM341.336 56.574H336.312L330.608 72.882H334.964L335.773 70.135C337.765 70.7179 339.882 70.7179 341.874 70.135L342.682 72.882H347.04L341.336 56.574ZM338.822 67.194C338.112 67.1941 337.407 67.0931 336.726 66.894L338.822 59.777L340.918 66.897C340.237 67.0952 339.531 67.1952 338.822 67.194Z" fill="white"/>
</g>
</g>
</g>
<g opacity="0.6">
<g clip-path="url(#clip5_0_278)">
<path d="M42.667 49.0938H24L33.333 58.4268H42.667V49.0938ZM24 67.7607H42.667L33.333 58.4268H24V67.7607ZM24 67.7607L33.333 77.0938V67.7607H24ZM61.333 70.5147V55.3878H70.563V58.3308H64.836V62.4137H70.564V65.2827H64.836V70.5147H61.333ZM73.17 70.5147V60.1038H76.471V61.7917C76.717 61.2998 77.125 60.8667 77.695 60.4948C78.265 60.1147 78.933 59.9248 79.699 59.9248C80.058 59.9248 80.374 59.9847 80.649 60.1047V63.1108C80.4542 63.0618 80.2569 63.023 80.058 62.9948C79.8803 62.9648 79.7002 62.9507 79.52 62.9528C78.584 62.9528 77.843 63.2157 77.294 63.7428C76.746 64.2708 76.471 65.1747 76.471 66.4548V70.5158H73.17V70.5147ZM81.324 65.3037C81.324 64.5237 81.447 63.7987 81.693 63.1307C81.9261 62.4951 82.2807 61.9109 82.737 61.4108C83.187 60.9258 83.711 60.5427 84.309 60.2607C84.9166 59.9776 85.5797 59.8338 86.25 59.8398C87.03 59.8398 87.706 60.0048 88.275 60.3348C88.852 60.6658 89.285 61.0848 89.573 61.5907V60.1027H92.875V70.5147H89.573V69.0487C89.313 69.5268 88.894 69.9348 88.318 70.2728C87.741 70.6098 87.052 70.7787 86.25 70.7787C85.56 70.7787 84.914 70.6388 84.31 70.3568C83.7162 70.0788 83.182 69.6882 82.737 69.2068C82.282 68.7018 81.9277 68.1146 81.693 67.4767C81.4416 66.7801 81.3173 66.0443 81.324 65.3037ZM84.604 65.3037C84.604 65.6627 84.664 66.0068 84.784 66.3377C84.91 66.6607 85.079 66.9427 85.29 67.1817C85.508 67.4137 85.768 67.6038 86.07 67.7518C86.373 67.8918 86.71 67.9618 87.084 67.9618C87.456 67.9618 87.794 67.8918 88.096 67.7518C88.406 67.6038 88.666 67.4137 88.876 67.1817C89.095 66.9417 89.264 66.6617 89.383 66.3377C89.51 66.0138 89.573 65.6697 89.573 65.3037C89.573 64.9447 89.51 64.6077 89.383 64.2907C89.2675 63.9808 89.0959 63.6947 88.877 63.4467C88.6653 63.2001 88.4026 63.0022 88.107 62.8667C87.7856 62.7224 87.4363 62.6507 87.084 62.6567C86.711 62.6567 86.374 62.7267 86.071 62.8667C85.7736 63.0039 85.5079 63.2014 85.291 63.4467C85.079 63.6937 84.911 63.9747 84.784 64.2907C84.664 64.6077 84.604 64.9447 84.604 65.3037ZM95.68 70.5147V60.1038H98.877V61.6128C99.109 61.1488 99.472 60.7367 99.964 60.3787C100.464 60.0197 101.131 59.8407 101.968 59.8407C102.748 59.8407 103.396 60.0127 103.909 60.3567C104.429 60.6947 104.806 61.1487 105.038 61.7177C105.165 61.4717 105.326 61.2368 105.523 61.0118C105.723 60.7767 105.958 60.5737 106.219 60.4097C106.494 60.2347 106.814 60.0967 107.179 59.9987C107.585 59.889 108.004 59.8359 108.424 59.8407C109.141 59.8407 109.732 59.9637 110.196 60.2098C110.638 60.4355 111.013 60.7734 111.283 61.1897C111.543 61.5918 111.719 62.0487 111.81 62.5618C111.902 63.0688 111.948 63.5818 111.948 64.1018V70.5158H108.772V64.9038C108.772 64.2008 108.646 63.6517 108.392 63.2587C108.146 62.8577 107.742 62.6567 107.179 62.6567C106.933 62.6567 106.701 62.6987 106.483 62.7837C106.257 62.8736 106.06 63.0229 105.913 63.2157C105.759 63.4127 105.639 63.6838 105.555 64.0288C105.47 64.3658 105.428 64.7848 105.428 65.2838V70.5158H102.232V64.8728C102.232 64.1688 102.109 63.6237 101.862 63.2367C101.617 62.8507 101.212 62.6567 100.65 62.6567C100.143 62.6567 99.721 62.8507 99.384 63.2367C99.046 63.6237 98.877 64.3308 98.877 65.3568V70.5168H95.681L95.68 70.5147ZM113.984 65.3037C113.984 64.5367 114.1 63.8238 114.332 63.1628C114.571 62.5008 114.922 61.9247 115.387 61.4327C115.872 60.9238 116.457 60.5213 117.106 60.2507C117.788 59.9627 118.569 59.8188 119.448 59.8188C120.285 59.8188 121.038 59.9487 121.705 60.2087C122.339 60.4471 122.917 60.8134 123.404 61.2847C123.874 61.7347 124.237 62.2727 124.49 62.8988C124.743 63.5248 124.87 64.1987 124.87 64.9237C124.87 65.1278 124.863 65.3037 124.849 65.4517C124.826 65.6704 124.798 65.8884 124.765 66.1057H117.306C117.306 66.4217 117.346 66.7208 117.422 67.0018C117.507 67.2838 117.633 67.5297 117.802 67.7407C117.978 67.9507 118.21 68.1167 118.498 68.2367C118.787 68.3568 119.138 68.4158 119.553 68.4158C120.144 68.4158 120.587 68.3027 120.883 68.0777C121.178 67.8457 121.382 67.5647 121.494 67.2337H124.743C124.659 67.7261 124.476 68.1963 124.205 68.6157C123.93 69.054 123.576 69.4372 123.161 69.7458C122.732 70.0688 122.219 70.3258 121.621 70.5158C121.023 70.7058 120.348 70.7997 119.596 70.7997C118.688 70.7997 117.883 70.6597 117.18 70.3778C116.516 70.1182 115.915 69.7192 115.418 69.2078C114.944 68.7032 114.578 68.107 114.342 67.4557C114.099 66.7645 113.978 66.0364 113.984 65.3037ZM117.306 64.2067H121.632C121.632 63.5737 121.431 63.0747 121.03 62.7087C120.636 62.3357 120.116 62.1488 119.469 62.1488C118.85 62.1488 118.333 62.3287 117.919 62.6877C117.51 63.0387 117.306 63.5457 117.306 64.2067ZM127.117 70.5147V60.1038H130.419V61.7917C130.665 61.2998 131.073 60.8667 131.642 60.4948C132.212 60.1147 132.88 59.9248 133.647 59.9248C134.005 59.9248 134.322 59.9847 134.596 60.1047V63.1108C134.401 63.0617 134.204 63.023 134.005 62.9948C133.827 62.9647 133.647 62.9507 133.467 62.9528C132.532 62.9528 131.79 63.2157 131.242 63.7428C130.693 64.2708 130.419 65.1747 130.419 66.4548V70.5158H127.117V70.5147Z" fill="white"/>
</g>
</g>
<path d="M494.856 8.03203V6.53011H503.806V8.03203H500.198V18.0938H498.459V8.03203H494.856ZM504.697 18.0938V9.42102H506.329V10.7987H506.419C506.578 10.332 506.856 9.96495 507.255 9.69769C507.658 9.42667 508.113 9.29116 508.621 9.29116C508.727 9.29116 508.851 9.29492 508.994 9.30245C509.141 9.30998 509.256 9.31939 509.339 9.33068V10.9455C509.271 10.9267 509.15 10.906 508.977 10.8834C508.804 10.8571 508.631 10.8439 508.458 10.8439C508.059 10.8439 507.703 10.9286 507.391 11.098C507.082 11.2636 506.837 11.4951 506.657 11.7925C506.476 12.0861 506.386 12.4211 506.386 12.7975V18.0938H504.697ZM516.243 14.4971V9.42102H517.937V18.0938H516.277V16.5918H516.187C515.987 17.0548 515.667 17.4407 515.227 17.7493C514.79 18.0542 514.247 18.2067 513.595 18.2067C513.038 18.2067 512.545 18.0843 512.116 17.8397C511.691 17.5912 511.356 17.2242 511.111 16.7386C510.87 16.2531 510.75 15.6527 510.75 14.9375V9.42102H512.438V14.7342C512.438 15.3252 512.602 15.7957 512.929 16.1458C513.257 16.4958 513.682 16.6709 514.205 16.6709C514.521 16.6709 514.836 16.5918 515.148 16.4337C515.464 16.2756 515.726 16.0366 515.933 15.7167C516.144 15.3967 516.247 14.9902 516.243 14.4971ZM526.655 11.5384L525.124 11.8094C525.06 11.6137 524.959 11.4273 524.82 11.2504C524.684 11.0735 524.5 10.9286 524.266 10.8157C524.033 10.7027 523.741 10.6463 523.391 10.6463C522.913 10.6463 522.514 10.7536 522.194 10.9681C521.874 11.1789 521.714 11.4518 521.714 11.7868C521.714 12.0767 521.821 12.31 522.036 12.487C522.25 12.6639 522.597 12.8088 523.075 12.9217L524.453 13.2379C525.251 13.4224 525.845 13.7066 526.237 14.0905C526.628 14.4745 526.824 14.9732 526.824 15.5868C526.824 16.1063 526.673 16.5692 526.372 16.9758C526.075 17.3786 525.659 17.6947 525.124 17.9244C524.594 18.154 523.978 18.2688 523.278 18.2688C522.307 18.2688 521.515 18.0618 520.901 17.6477C520.287 17.2299 519.911 16.637 519.772 15.8691L521.404 15.6207C521.505 16.046 521.714 16.3679 522.03 16.5862C522.346 16.8007 522.759 16.908 523.267 16.908C523.82 16.908 524.262 16.7932 524.594 16.5636C524.925 16.3302 525.091 16.046 525.091 15.711C525.091 15.44 524.989 15.2123 524.786 15.0278C524.586 14.8434 524.279 14.7041 523.865 14.61L522.397 14.2881C521.588 14.1037 520.989 13.8101 520.602 13.4073C520.218 13.0045 520.026 12.4945 520.026 11.8772C520.026 11.3652 520.169 10.9173 520.455 10.5333C520.741 10.1494 521.136 9.85014 521.641 9.63558C522.145 9.41726 522.723 9.3081 523.374 9.3081C524.311 9.3081 525.049 9.51136 525.587 9.9179C526.126 10.3207 526.481 10.8608 526.655 11.5384ZM532.679 9.42102V10.7761H527.941V9.42102H532.679ZM529.212 7.34318H530.9V15.5473C530.9 15.8748 530.949 16.1213 531.047 16.2869C531.145 16.4488 531.271 16.5598 531.425 16.6201C531.583 16.6765 531.755 16.7048 531.939 16.7048C532.074 16.7048 532.193 16.6953 532.295 16.6765C532.396 16.6577 532.475 16.6426 532.532 16.6314L532.837 18.026C532.739 18.0636 532.6 18.1013 532.419 18.1389C532.238 18.1803 532.012 18.2029 531.741 18.2067C531.297 18.2142 530.883 18.1352 530.499 17.9695C530.115 17.8039 529.805 17.5479 529.568 17.2016C529.33 16.8553 529.212 16.4206 529.212 15.8973V7.34318ZM538.141 18.2688C537.286 18.2688 536.55 18.0862 535.933 17.7211C535.32 17.3522 534.845 16.8346 534.51 16.1684C534.179 15.4983 534.013 14.7135 534.013 13.8138C534.013 12.9255 534.179 12.1425 534.51 11.465C534.845 10.7874 535.312 10.2586 535.911 9.87837C536.513 9.49819 537.217 9.3081 538.022 9.3081C538.512 9.3081 538.986 9.38903 539.445 9.55089C539.904 9.71275 540.317 9.96683 540.682 10.3131C541.047 10.6594 541.335 11.1093 541.546 11.6626C541.756 12.2122 541.862 12.8803 541.862 13.667V14.2656H534.968V13.0008H540.207C540.207 12.5566 540.117 12.1632 539.936 11.8207C539.756 11.4744 539.502 11.2015 539.174 11.002C538.85 10.8025 538.47 10.7027 538.034 10.7027C537.559 10.7027 537.145 10.8194 536.791 11.0528C536.441 11.2824 536.17 11.5836 535.978 11.9562C535.79 12.3251 535.696 12.726 535.696 13.1589V14.147C535.696 14.7267 535.798 15.2198 536.001 15.6263C536.208 16.0328 536.496 16.3434 536.865 16.558C537.234 16.7687 537.665 16.8741 538.158 16.8741C538.478 16.8741 538.769 16.829 539.033 16.7386C539.296 16.6445 539.524 16.5053 539.716 16.3208C539.908 16.1364 540.055 15.9086 540.157 15.6376L541.754 15.9256C541.626 16.3961 541.397 16.8083 541.066 17.1621C540.738 17.5122 540.326 17.7851 539.829 17.9808C539.336 18.1728 538.773 18.2688 538.141 18.2688ZM546.932 18.2631C546.231 18.2631 545.607 18.0843 545.057 17.7267C544.511 17.3654 544.082 16.8516 543.77 16.1853C543.461 15.5153 543.307 14.7116 543.307 13.7743C543.307 12.837 543.463 12.0353 543.775 11.369C544.091 10.7027 544.524 10.1927 545.074 9.83885C545.623 9.48501 546.246 9.3081 546.943 9.3081C547.481 9.3081 547.914 9.39844 548.241 9.57912C548.573 9.75604 548.829 9.96307 549.009 10.2002C549.194 10.4374 549.337 10.6463 549.438 10.827H549.54V6.53011H551.228V18.0938H549.58V16.7443H549.438C549.337 16.9287 549.19 17.1395 548.998 17.3767C548.81 17.6138 548.55 17.8208 548.219 17.9978C547.888 18.1747 547.459 18.2631 546.932 18.2631ZM547.304 16.8233C547.79 16.8233 548.2 16.6953 548.535 16.4394C548.874 16.1797 549.13 15.8202 549.303 15.3609C549.48 14.9017 549.568 14.3672 549.568 13.7574C549.568 13.1551 549.482 12.6281 549.309 12.1764C549.135 11.7247 548.881 11.3728 548.546 11.1206C548.211 10.8684 547.797 10.7423 547.304 10.7423C546.796 10.7423 546.373 10.874 546.034 11.1375C545.695 11.401 545.439 11.7605 545.266 12.2159C545.096 12.6714 545.012 13.1852 545.012 13.7574C545.012 14.3371 545.098 14.8584 545.272 15.3214C545.445 15.7844 545.701 16.1514 546.039 16.4224C546.382 16.6897 546.804 16.8233 547.304 16.8233ZM557.881 18.0938V6.53011H559.57V10.827H559.671C559.769 10.6463 559.91 10.4374 560.095 10.2002C560.279 9.96307 560.535 9.75604 560.863 9.57912C561.19 9.39844 561.623 9.3081 562.161 9.3081C562.861 9.3081 563.486 9.48501 564.036 9.83885C564.585 10.1927 565.016 10.7027 565.329 11.369C565.645 12.0353 565.803 12.837 565.803 13.7743C565.803 14.7116 565.647 15.5153 565.334 16.1853C565.022 16.8516 564.593 17.3654 564.047 17.7267C563.501 18.0843 562.878 18.2631 562.178 18.2631C561.651 18.2631 561.22 18.1747 560.885 17.9978C560.554 17.8208 560.294 17.6138 560.106 17.3767C559.918 17.1395 559.773 16.9287 559.671 16.7443H559.53V18.0938H557.881ZM559.536 13.7574C559.536 14.3672 559.624 14.9017 559.801 15.3609C559.978 15.8202 560.234 16.1797 560.569 16.4394C560.904 16.6953 561.314 16.8233 561.8 16.8233C562.304 16.8233 562.726 16.6897 563.065 16.4224C563.403 16.1514 563.659 15.7844 563.833 15.3214C564.009 14.8584 564.098 14.3371 564.098 13.7574C564.098 13.1852 564.011 12.6714 563.838 12.2159C563.669 11.7605 563.413 11.401 563.07 11.1375C562.732 10.874 562.308 10.7423 561.8 10.7423C561.311 10.7423 560.896 10.8684 560.558 11.1206C560.223 11.3728 559.969 11.7247 559.795 12.1764C559.622 12.6281 559.536 13.1551 559.536 13.7574ZM568.421 21.346C568.169 21.346 567.939 21.3253 567.732 21.2839C567.525 21.2463 567.371 21.2049 567.269 21.1597L567.676 19.7763C567.984 19.8592 568.259 19.8949 568.5 19.8836C568.741 19.8723 568.954 19.782 569.138 19.6126C569.326 19.4432 569.492 19.1665 569.635 18.7826L569.844 18.2067L566.671 9.42102H568.477L570.674 16.1514H570.764L572.961 9.42102H574.773L571.199 19.2512C571.033 19.7029 570.823 20.085 570.567 20.3974C570.311 20.7136 570.006 20.9508 569.652 21.1089C569.298 21.267 568.888 21.346 568.421 21.346ZM584.516 9.42102V10.7761H579.779V9.42102H584.516ZM581.049 7.34318H582.737V15.5473C582.737 15.8748 582.786 16.1213 582.884 16.2869C582.982 16.4488 583.108 16.5598 583.263 16.6201C583.421 16.6765 583.592 16.7048 583.776 16.7048C583.912 16.7048 584.03 16.6953 584.132 16.6765C584.234 16.6577 584.313 16.6426 584.369 16.6314L584.674 18.026C584.576 18.0636 584.437 18.1013 584.256 18.1389C584.076 18.1803 583.85 18.2029 583.579 18.2067C583.135 18.2142 582.72 18.1352 582.337 17.9695C581.953 17.8039 581.642 17.5479 581.405 17.2016C581.168 16.8553 581.049 16.4206 581.049 15.8973V7.34318ZM589.978 18.2688C589.124 18.2688 588.388 18.0862 587.771 17.7211C587.157 17.3522 586.683 16.8346 586.348 16.1684C586.016 15.4983 585.851 14.7135 585.851 13.8138C585.851 12.9255 586.016 12.1425 586.348 11.465C586.683 10.7874 587.149 10.2586 587.748 9.87837C588.35 9.49819 589.054 9.3081 589.86 9.3081C590.349 9.3081 590.823 9.38903 591.283 9.55089C591.742 9.71275 592.154 9.96683 592.519 10.3131C592.884 10.6594 593.172 11.1093 593.383 11.6626C593.594 12.2122 593.699 12.8803 593.699 13.667V14.2656H586.805V13.0008H592.045C592.045 12.5566 591.954 12.1632 591.774 11.8207C591.593 11.4744 591.339 11.2015 591.012 11.002C590.688 10.8025 590.308 10.7027 589.871 10.7027C589.397 10.7027 588.983 10.8194 588.629 11.0528C588.279 11.2824 588.008 11.5836 587.816 11.9562C587.627 12.3251 587.533 12.726 587.533 13.1589V14.147C587.533 14.7267 587.635 15.2198 587.838 15.6263C588.045 16.0328 588.333 16.3434 588.702 16.558C589.071 16.7687 589.502 16.8741 589.995 16.8741C590.315 16.8741 590.607 16.829 590.87 16.7386C591.134 16.6445 591.362 16.5053 591.554 16.3208C591.746 16.1364 591.892 15.9086 591.994 15.6376L593.592 15.9256C593.464 16.3961 593.234 16.8083 592.903 17.1621C592.576 17.5122 592.163 17.7851 591.666 17.9808C591.173 18.1728 590.611 18.2688 589.978 18.2688ZM598.046 18.2857C597.497 18.2857 597 18.1841 596.556 17.9808C596.111 17.7738 595.759 17.4745 595.5 17.0831C595.244 16.6916 595.116 16.2116 595.116 15.6433C595.116 15.1539 595.21 14.7511 595.398 14.4349C595.586 14.1188 595.84 13.8684 596.16 13.684C596.48 13.4995 596.838 13.3603 597.233 13.2662C597.628 13.1721 598.031 13.1005 598.441 13.0516C598.961 12.9914 599.382 12.9424 599.706 12.9048C600.03 12.8634 600.265 12.7975 600.412 12.7072C600.559 12.6168 600.632 12.47 600.632 12.2668V12.2272C600.632 11.7341 600.493 11.3521 600.214 11.081C599.94 10.81 599.529 10.6745 598.983 10.6745C598.415 10.6745 597.967 10.8006 597.64 11.0528C597.316 11.3012 597.092 11.5779 596.968 11.8828L595.381 11.5214C595.569 10.9945 595.844 10.5691 596.206 10.2454C596.571 9.9179 596.99 9.68075 597.465 9.53395C597.939 9.38338 598.438 9.3081 598.961 9.3081C599.307 9.3081 599.674 9.3495 600.062 9.43232C600.453 9.51136 600.819 9.65817 601.157 9.87273C601.5 10.0873 601.78 10.3941 601.999 10.7931C602.217 11.1883 602.326 11.7021 602.326 12.3345V18.0938H600.677V16.908H600.61C600.5 17.1263 600.337 17.3409 600.118 17.5517C599.9 17.7625 599.62 17.9375 599.277 18.0768C598.935 18.2161 598.524 18.2857 598.046 18.2857ZM598.413 16.9306C598.88 16.9306 599.279 16.8384 599.61 16.6539C599.945 16.4695 600.199 16.2286 600.372 15.9312C600.549 15.6301 600.638 15.3082 600.638 14.9657V13.8477C600.578 13.908 600.461 13.9644 600.288 14.0171C600.118 14.0661 599.925 14.1093 599.706 14.147C599.488 14.1809 599.275 14.2129 599.068 14.243C598.861 14.2693 598.688 14.2919 598.549 14.3107C598.221 14.3521 597.922 14.4218 597.651 14.5196C597.384 14.6175 597.169 14.7587 597.007 14.9431C596.849 15.1238 596.77 15.3647 596.77 15.6658C596.77 16.0837 596.924 16.3999 597.233 16.6144C597.542 16.8252 597.935 16.9306 598.413 16.9306ZM604.525 18.0938V9.42102H606.145V10.8326H606.253C606.433 10.3545 606.729 9.98189 607.139 9.71463C607.549 9.44361 608.041 9.3081 608.613 9.3081C609.192 9.3081 609.678 9.44361 610.069 9.71463C610.465 9.98565 610.756 10.3583 610.945 10.8326H611.035C611.242 10.3696 611.571 10.0007 612.023 9.72592C612.475 9.44737 613.013 9.3081 613.638 9.3081C614.425 9.3081 615.066 9.55465 615.563 10.0478C616.064 10.5409 616.314 11.2843 616.314 12.2781V18.0938H614.626V12.4362C614.626 11.8489 614.466 11.4236 614.146 11.1601C613.826 10.8966 613.444 10.7648 613 10.7648C612.45 10.7648 612.023 10.9342 611.718 11.273C611.413 11.608 611.261 12.039 611.261 12.566V18.0938H609.578V12.3289C609.578 11.8583 609.431 11.48 609.138 11.194C608.844 10.9079 608.462 10.7648 607.992 10.7648C607.672 10.7648 607.376 10.8495 607.105 11.0189C606.838 11.1846 606.621 11.4161 606.456 11.7134C606.294 12.0108 606.213 12.3552 606.213 12.7467V18.0938H604.525ZM625.026 11.5384L623.496 11.8094C623.432 11.6137 623.33 11.4273 623.191 11.2504C623.055 11.0735 622.871 10.9286 622.638 10.8157C622.404 10.7027 622.112 10.6463 621.762 10.6463C621.284 10.6463 620.885 10.7536 620.565 10.9681C620.245 11.1789 620.085 11.4518 620.085 11.7868C620.085 12.0767 620.193 12.31 620.407 12.487C620.622 12.6639 620.968 12.8088 621.446 12.9217L622.824 13.2379C623.622 13.4224 624.217 13.7066 624.608 14.0905C625 14.4745 625.195 14.9732 625.195 15.5868C625.195 16.1063 625.045 16.5692 624.744 16.9758C624.446 17.3786 624.03 17.6947 623.496 17.9244C622.965 18.154 622.35 18.2688 621.649 18.2688C620.678 18.2688 619.886 18.0618 619.272 17.6477C618.659 17.2299 618.282 16.637 618.143 15.8691L619.775 15.6207C619.876 16.046 620.085 16.3679 620.402 16.5862C620.718 16.8007 621.13 16.908 621.638 16.908C622.191 16.908 622.634 16.7932 622.965 16.5636C623.296 16.3302 623.462 16.046 623.462 15.711C623.462 15.44 623.36 15.2123 623.157 15.0278C622.957 14.8434 622.651 14.7041 622.237 14.61L620.769 14.2881C619.959 14.1037 619.361 13.8101 618.973 13.4073C618.589 13.0045 618.397 12.4945 618.397 11.8772C618.397 11.3652 618.54 10.9173 618.826 10.5333C619.112 10.1494 619.508 9.85014 620.012 9.63558C620.516 9.41726 621.094 9.3081 621.745 9.3081C622.683 9.3081 623.42 9.51136 623.959 9.9179C624.497 10.3207 624.853 10.8608 625.026 11.5384ZM633.683 18.2857C633.134 18.2857 632.637 18.1841 632.193 17.9808C631.749 17.7738 631.397 17.4745 631.137 17.0831C630.881 16.6916 630.753 16.2116 630.753 15.6433C630.753 15.1539 630.847 14.7511 631.035 14.4349C631.223 14.1188 631.477 13.8684 631.797 13.684C632.117 13.4995 632.475 13.3603 632.87 13.2662C633.265 13.1721 633.668 13.1005 634.079 13.0516C634.598 12.9914 635.02 12.9424 635.343 12.9048C635.667 12.8634 635.902 12.7975 636.049 12.7072C636.196 12.6168 636.269 12.47 636.269 12.2668V12.2272C636.269 11.7341 636.13 11.3521 635.851 11.081C635.577 10.81 635.166 10.6745 634.621 10.6745C634.052 10.6745 633.604 10.8006 633.277 11.0528C632.953 11.3012 632.729 11.5779 632.605 11.8828L631.018 11.5214C631.206 10.9945 631.481 10.5691 631.843 10.2454C632.208 9.9179 632.627 9.68075 633.102 9.53395C633.576 9.38338 634.075 9.3081 634.598 9.3081C634.944 9.3081 635.311 9.3495 635.699 9.43232C636.091 9.51136 636.456 9.65817 636.794 9.87273C637.137 10.0873 637.417 10.3941 637.636 10.7931C637.854 11.1883 637.963 11.7021 637.963 12.3345V18.0938H636.314V16.908H636.247C636.138 17.1263 635.974 17.3409 635.756 17.5517C635.537 17.7625 635.257 17.9375 634.914 18.0768C634.572 18.2161 634.161 18.2857 633.683 18.2857ZM634.05 16.9306C634.517 16.9306 634.916 16.8384 635.247 16.6539C635.582 16.4695 635.836 16.2286 636.01 15.9312C636.187 15.6301 636.275 15.3082 636.275 14.9657V13.8477C636.215 13.908 636.098 13.9644 635.925 14.0171C635.756 14.0661 635.562 14.1093 635.343 14.147C635.125 14.1809 634.912 14.2129 634.705 14.243C634.498 14.2693 634.325 14.2919 634.186 14.3107C633.858 14.3521 633.559 14.4218 633.288 14.5196C633.021 14.6175 632.806 14.7587 632.644 14.9431C632.486 15.1238 632.407 15.3647 632.407 15.6658C632.407 16.0837 632.562 16.3999 632.87 16.6144C633.179 16.8252 633.572 16.9306 634.05 16.9306ZM644.21 9.42102V10.7761H639.473V9.42102H644.21ZM640.743 7.34318H642.432V15.5473C642.432 15.8748 642.481 16.1213 642.578 16.2869C642.676 16.4488 642.802 16.5598 642.957 16.6201C643.115 16.6765 643.286 16.7048 643.471 16.7048C643.606 16.7048 643.725 16.6953 643.826 16.6765C643.928 16.6577 644.007 16.6426 644.063 16.6314L644.368 18.026C644.27 18.0636 644.131 18.1013 643.951 18.1389C643.77 18.1803 643.544 18.2029 643.273 18.2067C642.829 18.2142 642.415 18.1352 642.031 17.9695C641.647 17.8039 641.336 17.5479 641.099 17.2016C640.862 16.8553 640.743 16.4206 640.743 15.8973V7.34318Z" fill="white" fill-opacity="0.6"/>
<defs>
<clipPath id="clip0_0_278">
<rect width="131" height="24" fill="white" transform="translate(984.969 51.0938)"/>
</clipPath>
<clipPath id="clip1_0_278">
<rect width="161" height="24" fill="white" transform="translate(757.375 51.0938)"/>
</clipPath>
<clipPath id="clip2_0_278">
<rect width="93" height="24" fill="white" transform="translate(597.781 51.0938)"/>
</clipPath>
<clipPath id="clip3_0_278">
<rect width="100" height="30" fill="white" transform="translate(431.188 48.0938)"/>
</clipPath>
<clipPath id="clip4_0_278">
<rect width="163" height="22" fill="white" transform="translate(201.594 52.0938)"/>
</clipPath>
<clipPath id="clip5_0_278">
<rect width="111" height="28" fill="white" transform="translate(24 49.0938)"/>
</clipPath>
</defs>
</svg>
